<svg xmlns="http://www.w3.org/2000/svg" width="500" height="500" version="1.0" viewBox="0 0 375 375"><defs><clipPath id="a"><path d="M287.629 119H326v42h-38.371Zm0 0"/></clipPath></defs><g clip-path="url(#a)"><path fill="#ff214f" d="M308.898 160.3h-4.343a1.085 1.085 0 0 1-1.082-1.085v-13.863l-12.051 6.882a1.082 1.082 0 0 1-1.473-.39l-2.172-3.688a1.095 1.095 0 0 1-.113-.828c.074-.281.254-.52.508-.664l12.05-6.98-12.054-6.985a1.086 1.086 0 0 1-.39-1.488l2.171-3.691a1.082 1.082 0 0 1 1.473-.391l12.05 6.887v-13.868c0-.597.485-1.085 1.083-1.085h4.343c.598 0 1.082.488 1.082 1.085v13.868l12.051-6.887a1.085 1.085 0 0 1 1.473.39l2.172 3.692a1.086 1.086 0 0 1-.395 1.488l-12.05 6.985 12.05 6.98a1.088 1.088 0 0 1 .395 1.488l-2.172 3.692c-.3.511-.957.687-1.473.39l-12.05-6.882v13.863c0 .597-.485 1.086-1.083 1.086Zm0 0"/></g><path fill="#fff" d="M125.328 145.225v72.531h-20.516V189.46H76.828v28.297H56.312v-72.53h20.516v27.25h27.984v-27.25Zm51.078 73.985c-7.668 0-14.559-1.626-20.672-4.876-6.117-3.25-10.918-7.738-14.406-13.468-3.492-5.727-5.235-12.188-5.235-19.375 0-7.188 1.743-13.645 5.235-19.375 3.488-5.739 8.289-10.227 14.406-13.469 6.113-3.25 13.004-4.875 20.672-4.875 7.664 0 14.555 1.625 20.672 4.875 6.113 3.242 10.914 7.73 14.406 13.469 3.488 5.73 5.234 12.187 5.234 19.375 0 7.187-1.746 13.648-5.234 19.375-3.492 5.73-8.293 10.218-14.406 13.468-6.117 3.25-13.008 4.875-20.672 4.875Zm0-17c3.664 0 6.984-.86 9.953-2.579 2.969-1.726 5.316-4.164 7.047-7.312 1.727-3.145 2.594-6.754 2.594-10.828 0-4.07-.867-7.68-2.594-10.828-1.73-3.145-4.078-5.582-7.047-7.313-2.969-1.726-6.289-2.594-9.953-2.594-3.656 0-6.977.868-9.953 2.594-2.969 1.73-5.32 4.168-7.047 7.313-1.719 3.148-2.578 6.757-2.578 10.828 0 4.074.86 7.683 2.578 10.828 1.727 3.148 4.078 5.586 7.047 7.312 2.976 1.72 6.297 2.578 9.953 2.578Zm76.582 17c-5.875 0-11.578-.727-17.11-2.172-5.523-1.457-10.011-3.395-13.468-5.813l6.734-15.125c3.25 2.149 7.016 3.875 11.297 5.188 4.281 1.312 8.492 1.968 12.64 1.968 7.876 0 11.813-1.972 11.813-5.922 0-2.062-1.125-3.593-3.375-4.593-2.242-1.008-5.844-2.067-10.812-3.172-5.461-1.176-10.024-2.438-13.688-3.781-3.656-1.344-6.797-3.5-9.422-6.47-2.625-2.976-3.937-6.987-3.937-12.03 0-4.414 1.207-8.399 3.625-11.954 2.414-3.562 6.023-6.378 10.828-8.453 4.8-2.07 10.691-3.109 17.672-3.109 4.758 0 9.453.539 14.078 1.61 4.633 1.062 8.71 2.632 12.234 4.702l-6.312 15.235c-6.906-3.727-13.61-5.594-20.11-5.594-4.074 0-7.043.606-8.906 1.813-1.867 1.21-2.797 2.78-2.797 4.718 0 1.938 1.102 3.391 3.313 4.36 2.207.96 5.765 1.96 10.672 3 5.53 1.18 10.109 2.437 13.734 3.781 3.625 1.344 6.766 3.484 9.422 6.422 2.664 2.937 4 6.93 4 11.969 0 4.355-1.215 8.293-3.64 11.812-2.419 3.524-6.044 6.34-10.876 8.453-4.836 2.102-10.703 3.156-17.61 3.156Zm0 0"/></svg>